HIERARCHY
ROOT Hips
{
	OFFSET 0.00000 0.00000 0.00000
	CHANNELS 6 Xposition Yposition Zposition Zrotation Yrotation Xrotation 
	JOINT RightUpLegDummy
	{
		OFFSET 0 0 0
		CHANNELS 3 Zrotation Yrotation Xrotation
		JOINT RightUpLeg
		{
			OFFSET -3.52197 -3.41223 0.04002
			CHANNELS 3 Zrotation Yrotation Xrotation
			JOINT RightLeg
			{
				OFFSET 0.00006 -17.42390 1.60435
				CHANNELS 3 Zrotation Yrotation Xrotation
				JOINT RightFoot
				{
					OFFSET 0.06154 -16.50078 -1.63900
					CHANNELS 3 Zrotation Yrotation Xrotation
					JOINT RightToes
					{
						OFFSET 0.00298 -1.73825 3.34613
						CHANNELS 3 Zrotation Yrotation Xrotation
						End Site
						{
							OFFSET 0.00480 -0.05416 3.85043
						}
					}
				}
			}
		}
	}
	JOINT SpineDummy
	{
		OFFSET 0 0 0
		CHANNELS 3 Zrotation Yrotation Xrotation
		JOINT Spine
		{
			OFFSET 0.00000 4.68130 0.00000
			CHANNELS 3 Zrotation Yrotation Xrotation
			JOINT Spine1
			{
				OFFSET -0.00000 10.10138 0.05002
				CHANNELS 3 Zrotation Yrotation Xrotation
				JOINT HEadDummy
				{
					OFFSET 0 0 0
					CHANNELS 3 Zrotation Yrotation Xrotation
					JOINT Head
					{
						OFFSET -0.00000 3.43865 0.00438
						CHANNELS 3 Zrotation Yrotation Xrotation
						End Site
						{
							OFFSET -0.11417 5.02924 0.98962
						}
					}
				}
				JOINT LeftShoulder1Dummy
				{
					OFFSET 0 0 0
					CHANNELS 3 Zrotation Yrotation Xrotation
					JOINT LeftShoulder1
					{
						OFFSET 3.53937 -0.14262 -0.08662
						CHANNELS 3 Zrotation Yrotation Xrotation
						JOINT LeftArm
						{
							OFFSET 4.04833 -0.00133 0.12681
							CHANNELS 3 Zrotation Yrotation Xrotation
							JOINT LeftForeArm
							{
								OFFSET 10.33880 -0.01036 -0.55515
								CHANNELS 3 Zrotation Yrotation Xrotation
								JOINT LeftHand
								{
									OFFSET 8.69677 0.07543 0.40060
									CHANNELS 3 Zrotation Yrotation Xrotation
									End Site
									{
										OFFSET 5.28377 -0.21905 0.59205
									}
								}
							}
						}
					}
				}
				JOINT RightShoulderDummy
				{
					OFFSET 0 0 0
					CHANNELS 3 Zrotation Yrotation Xrotation
					JOINT RightShoulder
					{
						OFFSET -3.53937 -0.14262 -0.08660
						CHANNELS 3 Zrotation Yrotation Xrotation
						JOINT RightArm
						{
							OFFSET -4.04833 -0.00133 0.12683
							CHANNELS 3 Zrotation Yrotation Xrotation
							JOINT RightForeArm
							{
								OFFSET -10.37987 -0.01039 -0.55511
								CHANNELS 3 Zrotation Yrotation Xrotation
								JOINT RightHand
								{
									OFFSET -8.67398 0.07538 0.40058
									CHANNELS 3 Zrotation Yrotation Xrotation
									End Site
									{
										OFFSET -5.24810 -0.21916 0.59204
									}
								}
							}
						}
					}
				}
			}
		}
	}
	JOINT LeftUpLegDummy
	{
		OFFSET 0 0 0
		CHANNELS 3 Zrotation Yrotation Xrotation
		JOINT LeftUpLeg
		{
			OFFSET 3.52197 -3.41223 0.04002
			CHANNELS 3 Zrotation Yrotation Xrotation
			JOINT LeftLeg
			{
				OFFSET -0.00012 -17.42399 1.60337
				CHANNELS 3 Zrotation Yrotation Xrotation
				JOINT LeftFoot
				{
					OFFSET -0.09972 -16.50070 -1.63802
					CHANNELS 3 Zrotation Yrotation Xrotation
					JOINT LeftToes
					{
						OFFSET -0.01575 -1.73823 3.34611
						CHANNELS 3 Zrotation Yrotation Xrotation
						End Site
						{
							OFFSET 0.03150 -0.01868 3.85031
						}
					}
				}
			}
		}
	}
}
MOTION
Frames: 14
Frame Time: 0.033333
-7.1324 39.3584 14.9037 177.1940 23.3671 175.5180 0.0000 0.0000 0.0000 -6.8054 -3.7674 -6.8680 -4.9114 -8.6362 22.9889 15.2528 -0.3812 -8.7556 0.0000 0.0000 -0.0000 0.0000 0.0000 0.0000 -4.6661 -0.3428 6.3302 3.9515 -1.5141 7.7669 0.0000 0.0000 0.0000 -5.1711 21.3266 -8.4062 0.0000 0.0000 0.0000 -14.3717 -1.7995 1.1283 -53.3663 -13.1048 31.2813 -14.1999 -87.8285 12.2618 22.4668 -3.7563 -1.7565 0.0000 0.0000 0.0000 11.8492 -0.7109 0.5307 62.7689 6.6376 35.1934 178.9215 68.4729 179.6926 -12.7690 5.0254 -1.1078 0.0000 0.0000 0.0000 4.1913 1.2771 -7.9680 0.3656 0.0139 26.4811 -11.9687 0.6431 -5.5213 -0.0000 0.0000 -0.0000
-7.0103 39.1548 14.8810 177.0850 23.2166 174.9420 0.0000 0.0000 0.0000 -6.4617 -2.8212 -6.8467 -6.1832 -10.2561 24.6704 13.7990 -0.1488 -10.4539 0.0000 0.0000 -0.0000 0.0000 0.0000 0.0000 -4.1997 -0.3497 7.2040 3.6563 -1.3809 7.7362 0.0000 0.0000 0.0000 -5.3326 20.7709 -8.8345 0.0000 0.0000 0.0000 -14.1490 -1.7580 1.1088 -53.2526 -13.7502 30.9159 -15.1567 -87.8766 12.7213 21.7955 -3.3732 -1.6319 0.0000 0.0000 0.0000 11.7978 -0.7611 0.5199 62.3815 7.3174 34.6147 178.8978 68.2116 179.3801 -12.4086 4.8274 -1.0554 0.0000 0.0000 0.0000 4.4049 1.7503 -8.8849 -0.1360 -0.6914 29.5047 -12.2996 0.6340 -5.7730 -0.0000 0.0000 -0.0000
-6.8258 38.7054 14.8433 177.3770 23.2510 173.6860 0.0000 0.0000 0.0000 -5.6670 -1.4128 -6.7128 -7.8679 -11.5240 28.2372 12.9771 0.1903 -13.4293 0.0000 0.0000 -0.0000 0.0000 0.0000 0.0000 -2.3442 -0.4142 8.8448 2.5887 -0.9695 8.4069 0.0000 0.0000 0.0000 -5.9124 19.9503 -10.0544 0.0000 0.0000 0.0000 -14.2683 -1.7235 1.1072 -53.0766 -15.0844 30.1532 -14.9824 -87.7560 12.0091 21.1975 -2.8402 -1.4901 0.0000 0.0000 0.0000 11.7113 -0.8179 0.5070 61.2830 9.1844 33.6270 178.8897 67.9851 179.2072 -12.0260 4.6957 -1.0085 0.0000 0.0000 0.0000 5.3921 2.7039 -10.7259 -1.2535 -1.8363 36.0281 -13.1036 0.6740 -5.7721 -0.0000 0.0000 -0.0000
-6.7020 38.1834 14.7735 178.2550 23.8509 172.4460 0.0000 0.0000 0.0000 -4.6721 -0.8428 -6.7313 -8.4669 -10.7384 32.1873 13.3590 0.4813 -15.9564 0.0000 0.0000 -0.0000 0.0000 0.0000 0.0000 0.4140 -0.5548 10.1773 1.1927 -0.4190 9.9974 0.0000 0.0000 0.0000 -6.9307 19.5030 -11.7011 0.0000 0.0000 0.0000 -14.9903 -1.8230 1.1635 -53.7318 -15.8924 29.1187 -11.4896 -87.1128 8.6666 21.3043 -2.5100 -1.4393 0.0000 0.0000 0.0000 11.6831 -0.7539 0.5184 59.4623 11.8979 32.9549 178.7961 68.3465 178.5389 -12.2801 4.7267 -1.0341 0.0000 0.0000 0.0000 7.1311 3.4335 -12.8743 -2.5776 -2.6059 43.4988 -14.7379 0.9048 -4.5843 -0.0000 0.0000 -0.0000
-6.6362 37.7790 14.6273 179.1420 24.8013 171.7640 0.0000 0.0000 0.0000 -3.9115 -0.8780 -6.9799 -8.2101 -9.3023 35.1811 13.6105 0.6611 -17.4274 0.0000 0.0000 -0.0000 0.0000 0.0000 0.0000 2.4256 -0.6856 10.5400 0.5044 -0.1021 11.8756 0.0000 0.0000 0.0000 -7.9110 19.5981 -12.9541 0.0000 0.0000 0.0000 -16.0949 -2.0086 1.2597 -55.6947 -15.0102 27.9901 -8.6116 -86.2214 5.9709 21.7350 -2.3326 -1.4372 0.0000 0.0000 0.0000 11.8544 -0.5349 0.5643 57.3723 14.6022 33.1291 178.5091 69.3340 176.5006 -13.1571 4.7066 -1.1092 0.0000 0.0000 0.0000 8.7798 3.3918 -14.8834 -3.9266 -3.0770 49.5317 -16.9501 1.3634 -2.2986 -0.0000 0.0000 -0.0000
-6.5701 37.5828 14.3710 179.5420 25.5096 171.5930 0.0000 0.0000 0.0000 -3.5754 -0.7356 -6.9998 -8.1651 -8.7845 36.6157 13.3572 0.7420 -18.2528 0.0000 0.0000 -0.0000 0.0000 0.0000 0.0000 3.0748 -0.8044 10.0609 0.8170 -0.1849 13.4054 0.0000 0.0000 0.0000 -8.2095 19.8630 -13.1876 0.0000 0.0000 0.0000 -17.3086 -2.1468 1.3542 -58.1342 -12.6431 27.2905 -8.2655 -85.7359 4.5930 22.0737 -2.1235 -1.4216 0.0000 0.0000 0.0000 12.2447 -0.3281 0.6147 55.8982 16.3130 34.1348 178.1815 70.3870 174.3153 -13.8476 4.5266 -1.1498 0.0000 0.0000 0.0000 9.5887 2.5522 -16.3487 -4.9064 -3.3388 52.9344 -18.2756 1.7591 -0.4195 -0.0000 0.0000 -0.0000
-6.4918 37.6162 14.0234 179.4560 25.7554 171.6360 0.0000 0.0000 0.0000 -3.6744 -0.2365 -6.2954 -8.3527 -9.1338 36.2055 13.3225 0.7760 -18.5717 0.0000 0.0000 -0.0000 0.0000 0.0000 0.0000 3.1029 -0.9437 9.2930 1.2313 -0.3786 14.3228 0.0000 0.0000 0.0000 -7.6389 19.7858 -12.3616 0.0000 0.0000 0.0000 -18.3423 -2.1903 1.4190 -59.8398 -9.9708 27.8646 -9.4925 -85.7652 3.9451 22.4975 -1.9870 -1.4241 0.0000 0.0000 0.0000 12.6624 -0.3289 0.6265 55.7083 16.3189 35.4724 178.1601 70.9141 174.4775 -13.5077 4.2893 -1.0949 0.0000 0.0000 0.0000 9.5135 1.4473 -16.8968 -4.2893 -2.9130 53.2448 -17.6856 1.7254 -0.2925 -0.0000 0.0000 -0.0000
-6.4321 37.8778 13.6434 179.0360 25.8446 171.8840 0.0000 0.0000 0.0000 -4.2010 0.3277 -5.0419 -8.1733 -9.6792 33.9500 13.7180 0.7263 -17.9340 0.0000 0.0000 -0.0000 0.0000 0.0000 0.0000 3.0834 -0.9571 8.5996 0.9584 -0.3322 14.4974 0.0000 0.0000 0.0000 -6.5090 18.9014 -10.8614 0.0000 0.0000 0.0000 -18.8859 -2.1415 1.4354 -60.5156 -7.8037 30.0035 -10.5303 -85.9306 3.9650 23.4005 -2.1313 -1.5123 0.0000 0.0000 0.0000 12.9348 -0.5260 0.5951 56.6594 14.5247 36.5667 178.5262 70.7783 177.3933 -12.0439 4.1295 -0.9560 0.0000 0.0000 0.0000 8.8547 0.5410 -16.5320 -1.6317 -1.4151 50.1508 -16.0270 1.3669 -1.7259 -0.0000 0.0000 -0.0000
-6.4089 38.2704 13.2607 178.3700 26.0635 172.5440 0.0000 0.0000 0.0000 -5.0681 0.7128 -3.9420 -7.6205 -10.1738 30.5926 13.9484 0.5651 -16.4572 0.0000 0.0000 -0.0000 0.0000 0.0000 0.0000 2.8565 -0.6940 7.9283 0.4200 -0.0358 13.9515 0.0000 0.0000 0.0000 -5.1025 16.3332 -9.2131 0.0000 0.0000 0.0000 -18.8367 -2.0035 1.3979 -60.6313 -6.2697 32.8379 -11.1385 -86.1498 4.5682 25.0040 -2.4049 -1.6782 0.0000 0.0000 0.0000 13.0681 -0.7312 0.5575 58.0783 11.5094 37.0576 178.9674 70.2217 -179.2551 -10.1559 4.0726 -0.7949 0.0000 0.0000 0.0000 7.8245 -0.2470 -15.7577 1.2535 0.7057 43.9457 -14.6846 1.0408 -3.4192 -0.0000 0.0000 -0.0000
-6.4124 38.6211 12.8572 177.6290 26.3989 173.6330 0.0000 0.0000 0.0000 -6.0411 1.0345 -3.4371 -7.1136 -10.7204 27.3678 13.8465 0.3938 -15.0475 0.0000 0.0000 -0.0000 0.0000 0.0000 0.0000 2.3411 -0.2391 7.0277 0.2584 0.3346 13.1381 0.0000 0.0000 0.0000 -3.4548 10.7884 -7.9627 0.0000 0.0000 0.0000 -18.3503 -1.8361 1.3313 -60.5991 -5.3463 35.1041 -13.1204 -86.6096 5.9750 27.2079 -2.5082 -1.8567 0.0000 0.0000 0.0000 13.0910 -0.7955 0.5451 59.4668 8.2229 36.9299 179.1884 69.5709 -177.6326 -8.7722 4.0597 -0.6803 0.0000 0.0000 0.0000 6.6023 -0.9948 -14.9686 2.4172 2.2641 35.8803 -13.7756 0.8742 -4.3153 -0.0000 0.0000 -0.0000
-6.4494 38.8425 12.4197 177.1650 26.8324 174.8920 0.0000 0.0000 0.0000 -6.7979 1.2534 -3.2806 -6.7192 -10.9880 24.8023 13.9337 0.2955 -14.1951 0.0000 0.0000 -0.0000 0.0000 0.0000 0.0000 1.9933 0.1653 5.7769 0.1627 0.6888 12.7742 0.0000 0.0000 0.0000 -1.5332 1.7383 -7.4793 0.0000 0.0000 0.0000 -17.6833 -1.7188 1.2699 -60.5275 -5.0393 36.1296 -17.7478 -87.2740 9.2008 29.3336 -2.4670 -1.9989 0.0000 0.0000 0.0000 13.0066 -0.7628 0.5496 60.5324 5.7455 36.5606 179.1707 69.0851 -177.9394 -8.4012 4.0740 -0.6511 0.0000 0.0000 0.0000 5.4692 -1.2626 -14.0115 2.1597 2.7106 27.8768 -12.4312 0.7714 -4.5055 -0.0000 0.0000 -0.0000
-6.5490 38.9881 11.9768 177.2080 27.4181 175.9650 0.0000 0.0000 0.0000 -7.1007 0.7048 -2.8447 -6.2559 -10.1702 22.3457 14.3569 0.2162 -13.4595 0.0000 0.0000 -0.0000 0.0000 0.0000 0.0000 1.8810 0.3255 4.4474 -0.2234 0.8911 13.2394 0.0000 0.0000 0.0000 0.7589 -9.6173 -7.8448 0.0000 0.0000 0.0000 -17.1712 -1.5990 1.2167 -60.3758 -5.2095 35.8970 -22.7142 -87.7905 13.6342 30.5057 -2.4546 -2.0800 0.0000 0.0000 0.0000 13.0052 -0.7930 0.5435 60.7398 5.1266 36.4790 179.0129 68.9619 -179.3406 -8.7527 4.0956 -0.6814 0.0000 0.0000 0.0000 4.6591 -0.9310 -12.6961 1.9488 3.0986 21.9316 -10.2708 0.6303 -4.6467 -0.0000 0.0000 -0.0000
-6.7089 39.1086 11.5614 177.6240 28.0468 176.5540 0.0000 0.0000 0.0000 -7.0814 0.0651 -1.8115 -5.8581 -9.1534 19.8680 14.7188 0.1060 -12.5242 0.0000 0.0000 -0.0000 0.0000 0.0000 0.0000 1.1295 0.2270 3.5620 -0.0603 0.6283 14.2945 0.0000 0.0000 0.0000 3.6715 -21.1216 -9.1812 0.0000 0.0000 0.0000 -17.1269 -1.4125 1.1702 -60.0372 -5.6583 34.6993 -22.3015 -87.8313 13.9214 30.6162 -2.4497 -2.0870 0.0000 0.0000 0.0000 13.3782 -0.9332 0.5241 59.7221 6.8286 36.8372 178.8038 69.3380 179.0188 -9.0687 4.0021 -0.7008 0.0000 0.0000 0.0000 4.2566 -0.8965 -11.3133 2.4349 4.5434 19.1324 -8.2483 0.4840 -5.0491 -0.0000 0.0000 -0.0000
-6.8823 39.1793 11.1730 178.0620 28.5466 176.5890 0.0000 0.0000 0.0000 -7.0282 -0.4063 -0.4807 -5.7227 -8.3894 18.0010 14.8337 0.0126 -11.7761 0.0000 0.0000 -0.0000 0.0000 0.0000 0.0000 -0.8562 0.0530 3.2974 1.4990 -0.1771 15.5152 0.0000 0.0000 0.0000 7.3813 -31.2235 -11.5898 0.0000 0.0000 0.0000 -17.4182 -1.3713 1.1737 -59.5076 -6.3062 33.0156 -18.4399 -87.3696 9.8753 30.4204 -2.3474 -2.0461 0.0000 0.0000 0.0000 13.9938 -1.0320 0.5179 58.2372 10.0605 37.2902 178.6331 70.2189 178.0040 -8.8700 3.7725 -0.6690 0.0000 0.0000 0.0000 4.0792 -1.4953 -10.3176 3.1751 6.2132 18.9286 -7.4168 0.4126 -5.4781 -0.0000 0.0000 -0.0000
